<svg preserveAspectRatio="none" width="100%" height="100%" overflow="visible" style="display: block;" viewBox="0 0 10 8.35" fill="none" xmlns="http://www.w3.org/2000/svg">
<g id="Container">
<path id="Icon" d="M0 8.35V7.375C0.241667 7.375 0.447917 7.3375 0.61875 7.2625C0.789583 7.1875 0.9625 7.10625 1.1375 7.01875C1.3125 6.93125 1.50625 6.85208 1.71875 6.78125C1.93125 6.71042 2.19375 6.675 2.50625 6.675C2.81875 6.675 3.07708 6.71042 3.28125 6.78125C3.48542 6.85208 3.675 6.93125 3.85 7.01875C4.025 7.10625 4.2 7.1875 4.375 7.2625C4.55 7.3375 4.75833 7.375 5 7.375C5.24167 7.375 5.45 7.3375 5.625 7.2625C5.8 7.1875 5.975 7.10625 6.15 7.01875C6.325 6.93125 6.51667 6.85208 6.725 6.78125C6.93333 6.71042 7.19375 6.675 7.50625 6.675C7.81875 6.675 8.07917 6.71042 8.2875 6.78125C8.49583 6.85208 8.6875 6.93125 8.8625 7.01875C9.0375 7.10625 9.2125 7.1875 9.3875 7.2625C9.5625 7.3375 9.76667 7.375 10 7.375V8.35C9.68333 8.35 9.41875 8.3125 9.20625 8.2375C8.99375 8.1625 8.8 8.08125 8.625 7.99375C8.45 7.90625 8.27917 7.82708 8.1125 7.75625C7.94583 7.68542 7.74167 7.65 7.5 7.65C7.26667 7.65 7.06458 7.68542 6.89375 7.75625C6.72292 7.82708 6.55208 7.90625 6.38125 7.99375C6.21042 8.08125 6.01875 8.1625 5.80625 8.2375C5.59375 8.3125 5.325 8.35 5 8.35C4.675 8.35 4.40625 8.3125 4.19375 8.2375C3.98125 8.1625 3.78958 8.08125 3.61875 7.99375C3.44792 7.90625 3.27917 7.82708 3.1125 7.75625C2.94583 7.68542 2.74375 7.65 2.50625 7.65C2.26875 7.65 2.06458 7.68542 1.89375 7.75625C1.72292 7.82708 1.55 7.90625 1.375 7.99375C1.2 8.08125 1.00625 8.1625 0.79375 8.2375C0.58125 8.3125 0.316667 8.35 0 8.35V8.35M0 6.125V5.15C0.241667 5.15 0.447917 5.1125 0.61875 5.0375C0.789583 4.9625 0.9625 4.88125 1.1375 4.79375C1.3125 4.70625 1.50625 4.62708 1.71875 4.55625C1.93125 4.48542 2.19375 4.45 2.50625 4.45C2.81875 4.45 3.07708 4.48542 3.28125 4.55625C3.48542 4.62708 3.675 4.70625 3.85 4.79375C4.025 4.88125 4.2 4.9625 4.375 5.0375C4.55 5.1125 4.75833 5.15 5 5.15C5.24167 5.15 5.45 5.1125 5.625 5.0375C5.8 4.9625 5.975 4.88125 6.15 4.79375C6.325 4.70625 6.51667 4.62708 6.725 4.55625C6.93333 4.48542 7.19167 4.45 7.5 4.45C7.81667 4.45 8.07917 4.48542 8.2875 4.55625C8.49583 4.62708 8.6875 4.70625 8.8625 4.79375C9.0375 4.88125 9.2125 4.9625 9.3875 5.0375C9.5625 5.1125 9.76667 5.15 10 5.15V6.125C9.68333 6.125 9.41875 6.0875 9.20625 6.0125C8.99375 5.9375 8.8 5.85625 8.625 5.76875C8.45 5.68125 8.27917 5.60208 8.1125 5.53125C7.94583 5.46042 7.74167 5.425 7.5 5.425C7.25833 5.425 7.05208 5.46042 6.88125 5.53125C6.71042 5.60208 6.53958 5.68125 6.36875 5.76875C6.19792 5.85625 6.00833 5.9375 5.8 6.0125C5.59167 6.0875 5.325 6.125 5 6.125C4.675 6.125 4.40625 6.0875 4.19375 6.0125C3.98125 5.9375 3.78958 5.85625 3.61875 5.76875C3.44792 5.68125 3.27917 5.60208 3.1125 5.53125C2.94583 5.46042 2.74375 5.425 2.50625 5.425C2.26875 5.425 2.06458 5.46042 1.89375 5.53125C1.72292 5.60208 1.55 5.68125 1.375 5.76875C1.2 5.85625 1.00625 5.9375 0.79375 6.0125C0.58125 6.0875 0.316667 6.125 0 6.125V6.125M0 3.9V2.925C0.241667 2.925 0.447917 2.8875 0.61875 2.8125C0.789583 2.7375 0.9625 2.65625 1.1375 2.56875C1.3125 2.48125 1.50625 2.40208 1.71875 2.33125C1.93125 2.26042 2.19375 2.225 2.50625 2.225C2.81875 2.225 3.07708 2.26042 3.28125 2.33125C3.48542 2.40208 3.675 2.48125 3.85 2.56875C4.025 2.65625 4.2 2.7375 4.375 2.8125C4.55 2.8875 4.75833 2.925 5 2.925C5.24167 2.925 5.45 2.8875 5.625 2.8125C5.8 2.7375 5.975 2.65625 6.15 2.56875C6.325 2.48125 6.51667 2.40208 6.725 2.33125C6.93333 2.26042 7.19167 2.225 7.5 2.225C7.81667 2.225 8.07917 2.26042 8.2875 2.33125C8.49583 2.40208 8.6875 2.48125 8.8625 2.56875C9.0375 2.65625 9.2125 2.7375 9.3875 2.8125C9.5625 2.8875 9.76667 2.925 10 2.925V3.9C9.68333 3.9 9.41875 3.8625 9.20625 3.7875C8.99375 3.7125 8.8 3.63125 8.625 3.54375C8.45 3.45625 8.27917 3.37708 8.1125 3.30625C7.94583 3.23542 7.74167 3.2 7.5 3.2C7.26667 3.2 7.06458 3.23542 6.89375 3.30625C6.72292 3.37708 6.55208 3.45625 6.38125 3.54375C6.21042 3.63125 6.01875 3.7125 5.80625 3.7875C5.59375 3.8625 5.325 3.9 5 3.9C4.675 3.9 4.40625 3.8625 4.19375 3.7875C3.98125 3.7125 3.78958 3.63125 3.61875 3.54375C3.44792 3.45625 3.27917 3.37708 3.1125 3.30625C2.94583 3.23542 2.74375 3.2 2.50625 3.2C2.26875 3.2 2.06458 3.23542 1.89375 3.30625C1.72292 3.37708 1.55 3.45625 1.375 3.54375C1.2 3.63125 1.00625 3.7125 0.79375 3.7875C0.58125 3.8625 0.316667 3.9 0 3.9V3.9M0 1.675V0.7C0.241667 0.7 0.447917 0.6625 0.61875 0.5875C0.789583 0.5125 0.9625 0.43125 1.1375 0.34375C1.3125 0.25625 1.50625 0.177083 1.71875 0.10625C1.93125 0.0354167 2.19375 0 2.50625 0C2.81875 0 3.07708 0.0354167 3.28125 0.10625C3.48542 0.177083 3.675 0.25625 3.85 0.34375C4.025 0.43125 4.2 0.5125 4.375 0.5875C4.55 0.6625 4.75833 0.7 5 0.7C5.24167 0.7 5.45 0.6625 5.625 0.5875C5.8 0.5125 5.975 0.43125 6.15 0.34375C6.325 0.25625 6.51667 0.177083 6.725 0.10625C6.93333 0.0354167 7.19167 0 7.5 0C7.81667 0 8.07917 0.0354167 8.2875 0.10625C8.49583 0.177083 8.6875 0.25625 8.8625 0.34375C9.0375 0.43125 9.2125 0.5125 9.3875 0.5875C9.5625 0.6625 9.76667 0.7 10 0.7V1.675C9.68333 1.675 9.41875 1.6375 9.20625 1.5625C8.99375 1.4875 8.8 1.40625 8.625 1.31875C8.45 1.23125 8.27917 1.15208 8.1125 1.08125C7.94583 1.01042 7.74167 0.975 7.5 0.975C7.26667 0.975 7.06458 1.01042 6.89375 1.08125C6.72292 1.15208 6.55208 1.23125 6.38125 1.31875C6.21042 1.40625 6.01875 1.4875 5.80625 1.5625C5.59375 1.6375 5.325 1.675 5 1.675C4.675 1.675 4.40625 1.6375 4.19375 1.5625C3.98125 1.4875 3.78958 1.40625 3.61875 1.31875C3.44792 1.23125 3.27917 1.15208 3.1125 1.08125C2.94583 1.01042 2.74375 0.975 2.50625 0.975C2.26875 0.975 2.06458 1.01042 1.89375 1.08125C1.72292 1.15208 1.55 1.23125 1.375 1.31875C1.2 1.40625 1.00625 1.4875 0.79375 1.5625C0.58125 1.6375 0.316667 1.675 0 1.675V1.675" fill="var(--fill-0, #2E2F2C)" fill-opacity="0.4"/>
</g>
</svg>
