<svg preserveAspectRatio="none" width="100%" height="100%" overflow="visible" style="display: block;" viewBox="0 0 614.624 711.67" fill="none" xmlns="http://www.w3.org/2000/svg">
<g id="Vector" style="mix-blend-mode:multiply">
<path d="M581.775 0.5V711.17H550.427V0.5H581.775ZM549.427 0.5V711.17H518.078V0.5H549.427ZM517.078 0.5V711.17H485.729V0.5H517.078ZM484.729 0.5V711.17H453.381V0.5H484.729ZM452.381 0.5V711.17H421.032V0.5H452.381ZM420.032 0.5V711.17H388.684V0.5H420.032ZM387.684 0.5V711.17H356.335V0.5H387.684ZM355.335 0.5V711.17H323.986V0.5H355.335ZM322.986 0.5V711.17H291.638V0.5H322.986ZM290.638 0.5V711.17H259.289V0.5H290.638ZM258.289 0.5V711.17H226.94V0.5H258.289ZM225.94 0.5V711.17H194.592V0.5H225.94ZM193.592 0.5V711.17H162.243V0.5H193.592ZM161.243 0.5V711.17H129.895V0.5H161.243ZM128.895 0.5V711.17H97.5459V0.5H128.895ZM96.5459 0.5V711.17H65.1973V0.5H96.5459ZM64.1973 0.5V711.17H32.8486V0.5H64.1973ZM31.8486 0.5V711.17H0.5V0.5H31.8486Z" stroke="#FDF9F9"/>
</g>
</svg>
