<svg preserveAspectRatio="none" width="100%" height="100%" overflow="visible" style="display: block;" viewBox="0 0 614.942 712.67" fill="none" xmlns="http://www.w3.org/2000/svg">
<g id="Vector" style="mix-blend-mode:multiply">
<path d="M614.942 0.5H0.5V32.8486M614.942 32.8486H0.5M0.5 32.8486V65.1973M614.942 65.1973H0.5M0.5 65.1973V97.5459M614.942 97.5459H0.5M0.5 97.5459V129.895M614.942 129.895H0.5M0.5 129.895V162.243M614.942 162.243H0.5M0.5 162.243V194.592M614.942 194.592H0.5M0.5 194.592V226.94M614.942 226.94H0.5M0.5 226.94V259.289M614.942 259.289H0.5M0.5 259.289V291.638M614.942 291.638H0.5M0.5 291.638V323.986M614.942 323.986H0.5M0.5 323.986V356.335M614.942 356.335H0.5M0.5 356.335V388.684M614.942 388.684H0.5M0.5 388.684V421.032M614.942 421.032H0.5M0.5 421.032V453.381M614.942 453.381H0.5M0.5 453.381V485.729M614.942 485.729H0.5M0.5 485.729V518.078M614.942 518.078H0.5M0.5 518.078V550.427M614.942 550.427H0.5M0.5 550.427V582.775M614.942 582.775H0.5M0.5 582.775V615.124M614.942 615.124H0.5M0.5 615.124V647.473M614.942 647.473H0.5M0.5 647.473V679.821M614.942 679.821H0.5M0.5 679.821V712.17H614.942" stroke="#FDF9F9"/>
</g>
</svg>
