<svg preserveAspectRatio="none" width="100%" height="100%" overflow="visible" style="display: block;" viewBox="0 0 30 31.8429" fill="none" xmlns="http://www.w3.org/2000/svg">
<g id="octo">
<path d="M21.1519 13.8248C22.0186 14.3862 22.6881 14.6087 23.2244 14.6687C23.7386 14.7261 24.3418 14.6588 25.1295 14.3135C26.8873 13.5433 28.9363 14.3432 29.7068 16.1009C30.4773 17.8587 29.677 19.9075 27.9193 20.6782C27.218 20.9856 26.505 21.2199 25.7834 21.3818C26.662 22.3693 26.9382 23.8149 26.3672 25.1015C25.588 26.8556 23.5327 27.6479 21.7786 26.8686C21.4804 26.7361 21.1938 26.5868 20.9121 26.4342C20.8529 27.4542 20.6499 28.4719 20.3079 29.4819C19.6922 31.2994 17.7204 32.2737 15.9027 31.6586C14.9569 31.3383 14.2415 30.6497 13.8573 29.8078C12.6657 31.2596 10.5306 31.5071 9.04021 30.3463C7.52665 29.1669 7.25522 26.9844 8.43383 25.4704C8.96223 24.7919 9.17514 24.2247 9.24611 23.7123C9.32011 23.1776 9.26956 22.4738 8.93839 21.495L15.5226 19.2663C15.6408 19.6158 15.7435 19.97 15.8348 20.3252L15.8755 20.2935C15.6804 19.673 15.5329 19.0359 15.4253 18.3884L18.5295 17.8703L19.2626 16.7412L21.1519 13.8248Z" fill="var(--fill-0, #FF836A)"/>
<path d="M7.04254 5.66385C7.76204 7.30516 6.82296 9.30305 4.94505 10.1263C3.06713 10.9495 0.961512 10.2863 0.242011 8.645C-0.47749 7.00369 0.461589 5.0058 2.3395 4.18257C4.21742 3.35935 6.32304 4.02254 7.04254 5.66385Z" fill="#122F4E"/>
<path d="M22.1803 6.64982C24.6428 12.2674 22.0852 18.8176 16.4677 21.2802C10.8501 23.7428 4.29984 21.1852 1.83727 15.5676C-0.62531 9.95003 1.93231 3.39978 7.54988 0.937206C13.1674 -1.52537 19.7177 1.03225 22.1803 6.64982Z" fill="var(--fill-0, #FF836A)"/>
<path d="M18.276 6.74053C18.9955 8.38184 18.2482 10.2957 16.6069 11.0152C14.9656 11.7347 13.0518 10.9874 12.3323 9.34607C11.6128 7.70477 12.36 5.79095 14.0013 5.07145C15.6427 4.35195 17.5565 5.09922 18.276 6.74053Z" fill="#122F4E"/>
<path d="M7.50584 13.083C8.01995 14.2558 7.52485 15.6063 6.4 16.0994C5.27515 16.5925 3.94651 16.0415 3.4324 14.8687C2.91829 13.6959 3.41339 12.3455 4.53824 11.8524C5.66309 11.3593 6.99173 11.9102 7.50584 13.083Z" fill="#FFF3E5"/>
<path d="M6.11838 13.6911C6.32007 14.1512 6.19275 14.6517 5.834 14.8089C5.47524 14.9662 5.02092 14.7207 4.81923 14.2606C4.61753 13.8005 4.74486 13.3001 5.10361 13.1428C5.46236 12.9855 5.91669 13.231 6.11838 13.6911Z" fill="var(--fill-0, #FF836A)"/>
</g>
</svg>
